# xmcd CD database file
#
# Track frame offsets:
#	150
#	43297
#	85116
#	114899
#	143985
#	190807
#	250620
#
# Disc length: 3760 seconds
#
# Revision: 0
# Processed by: cddbd v1.5.2PL0 Copyright (c) Steve Scherf et al.
# Submitted via: CDex 1.51
#
DISCID=560eae07
DTITLE=松尾泰伸 - rlung
DYEAR=2004
DGENRE=New Age
TTITLE0=Prana -宇宙氣-
TTITLE1=NAGA -メコンのドラゴン-
TTITLE2=rlung -風-
TTITLE3=ramidus -根-
TTITLE4=missing -失われたもの-
TTITLE5=m -五色の虹-
TTITLE6=STAR CHILD -星の子供-
EXTD=YEAR: 2004
EXTT0=
EXTT1=
EXTT2=
EXTT3=
EXTT4=
EXTT5=
EXTT6=
PLAYORDER=
